<svg width="26" height="26" viewBox="0 0 26 26" fill="none" xmlns="http://www.w3.org/2000/svg">
<path d="M12.1486 0.00715875C12.0928 0.0122369 11.9148 0.0300103 11.7547 0.0427057C8.06184 0.375628 4.60272 2.36788 2.41191 5.43C1.19194 7.13259 0.411735 9.06391 0.116899 11.1096C0.0126953 11.8236 0 12.0345 0 13.0027C0 13.9709 0.0126953 14.1819 0.116899 14.8958C0.82347 19.7774 4.29773 23.879 9.00973 25.3985C9.85361 25.6705 10.7431 25.856 11.7547 25.9678C12.1486 26.011 13.8514 26.011 14.2454 25.9678C15.9914 25.7746 17.4706 25.3427 18.9295 24.5981C19.1531 24.4838 19.1964 24.4533 19.1658 24.4278C19.1455 24.4126 18.1924 23.1344 17.0487 21.5893L14.9697 18.7813L12.3646 14.9264C10.9312 12.807 9.75195 11.0739 9.74179 11.0739C9.73163 11.0714 9.72148 12.7842 9.7164 14.8755C9.70868 18.5374 9.70624 18.6847 9.66044 18.7712C9.59442 18.8957 9.54354 18.9466 9.4368 19.0024C9.35544 19.043 9.28425 19.0507 8.90055 19.0507H8.46078L8.34398 18.977C8.27155 18.9316 8.21271 18.8675 8.17366 18.7915L8.12024 18.6771L8.12532 13.5821L8.13294 8.48449L8.21175 8.38537C8.25237 8.33205 8.3388 8.26349 8.39984 8.23038C8.50405 8.1796 8.54467 8.17452 8.98433 8.17452C9.50281 8.17452 9.58924 8.19484 9.72391 8.3422C9.7621 8.38283 11.1726 10.5073 12.8602 13.0663C14.5478 15.6252 16.8556 19.1193 17.9891 20.8346L20.0478 23.9526L20.152 23.884C21.0746 23.2843 22.0505 22.4305 22.8231 21.541C24.4675 19.6529 25.5273 17.3507 25.8831 14.8959C25.9873 14.1819 26 13.9709 26 13.0028C26 12.0345 25.9873 11.8237 25.8831 11.1096C25.1766 6.22797 21.7023 2.12647 16.9903 0.606886C16.1591 0.337542 15.2747 0.151987 14.2835 0.0401666C14.0395 0.0147759 12.3596 -0.0131538 12.1486 0.00715875V0.00715875ZM17.4706 7.86953C17.5926 7.93047 17.6917 8.04747 17.7273 8.16944C17.7476 8.23546 17.7526 9.6484 17.7476 12.8325L17.7401 17.4015L16.9344 16.1665L16.1261 14.9315V11.6102C16.1261 9.46285 16.1363 8.25577 16.1515 8.19737C16.1921 8.05509 16.2812 7.94327 16.4032 7.87715C16.5074 7.82383 16.5455 7.81875 16.9445 7.81875C17.3207 7.81875 17.3867 7.82383 17.4706 7.86953Z" fill="white"/>
</svg>
